<svg width="30" height="30" viewBox="0 0 30 30" fill="none" xmlns="http://www.w3.org/2000/svg">
<path fill-rule="evenodd" clip-rule="evenodd" d="M20.236 21.2103L20.0527 21.6641C16.7733 22.7485 13.2267 22.7485 9.94733 21.6641L9.764 21.2103C9.58983 20.7928 9.50183 20.5822 9.34967 20.3898C9.19933 20.1956 8.93533 19.9996 8.40733 19.6093C6.55859 18.2389 5.19239 16.3271 4.5024 14.1449C3.81241 11.9627 3.83362 9.62086 4.56304 7.45129C5.29245 5.28172 6.69305 3.39448 8.56633 2.05709C10.4396 0.719702 12.6905 0 15 0C17.3095 0 19.5604 0.719702 21.4337 2.05709C23.3069 3.39448 24.7076 5.28172 25.437 7.45129C26.1664 9.62086 26.1876 11.9627 25.4976 14.1449C24.8076 16.3271 23.4414 18.2389 21.5927 19.6093C21.0647 19.9996 20.8007 20.1956 20.6503 20.3898C20.5 20.584 20.412 20.791 20.236 21.2103ZM11.0583 25.7119C11.2172 26.6703 11.3077 27.6372 11.3297 28.6125C11.3315 28.7414 11.3689 28.8673 11.4377 28.9767C11.5065 29.0861 11.6042 29.1749 11.7202 29.2333C12.7385 29.7375 13.8614 30 15 30C16.1386 30 17.2615 29.7375 18.2798 29.2333C18.3958 29.1749 18.4935 29.0861 18.5623 28.9767C18.6311 28.8673 18.6685 28.7414 18.6703 28.6125C18.6923 27.6372 18.7828 26.6703 18.9417 25.7119C16.341 26.2401 13.659 26.2401 11.0583 25.7119Z" fill="black"/>
</svg>
