<svg width="30" height="30" viewBox="0 0 30 30" fill="none" xmlns="http://www.w3.org/2000/svg">
<path d="M30 14.3994V28.8C30 29.1182 29.8683 29.4235 29.6339 29.6485C29.3995 29.8736 29.0815 30 28.75 30H20C19.6685 30 19.3505 29.8736 19.1161 29.6485C18.8817 29.4235 18.75 29.1182 18.75 28.8V20.9997C18.75 20.8405 18.6842 20.6879 18.5669 20.5754C18.4497 20.4629 18.2908 20.3996 18.125 20.3996H11.875C11.7092 20.3996 11.5503 20.4629 11.4331 20.5754C11.3158 20.6879 11.25 20.8405 11.25 20.9997V28.8C11.25 29.1182 11.1183 29.4235 10.8839 29.6485C10.6495 29.8736 10.3315 30 10 30H1.25C0.918479 30 0.600537 29.8736 0.366117 29.6485C0.131696 29.4235 0 29.1182 0 28.8V14.3994C0.000307327 13.763 0.263901 13.1527 0.732812 12.7029L13.2328 0.702414C13.7016 0.25265 14.3372 0 15 0C15.6628 0 16.2984 0.25265 16.7672 0.702414L29.2672 12.7029C29.7361 13.1527 29.9997 13.763 30 14.3994Z" fill="black"/>
</svg>
